<svg version="1" xmlns="http://www.w3.org/2000/svg" width="1365.333" height="1365.333" viewBox="0 0 1024.000000 1024.000000"><path d="M550.1 254.5c-9.8 3.1-10.8 4.8-33.2 58.7C509 332.4 502.3 348 502 348c-.7-.1-3.7-7.3-18-42.9-6.7-16.7-13.2-32.7-14.4-35.5-4.4-9.8-12.5-15.6-21.8-15.6-3.9 0-159.1 41-165 43.6-4.6 2.1-9.3 6.8-11.2 11.6-3.2 7.5-1.3 18.7 5.3 31.8 1.9 3.6 4.2 10.2 3.8 10.6-.1.1-10.1-2.7-22.2-6.2S235.4 339 234 339c-3.2 0-8.4 3.2-10.6 6.5-2.1 3.2-2 9.9.2 13.3.9 1.4 3.1 3.7 4.8 5.1 4.2 3.6 35 29.8 59.8 50.9l20.7 17.7v134.4c0 108.6.3 134.7 1.3 135.7s123.9 43.8 191.1 66.5l5.9 2 89.1-31.5c49.1-17.3 96.2-34 104.7-37s16-6.3 16.7-7.2c1-1.4 1.3-29 1.3-138.5V420.2l40.1-39.3c22-21.7 40.7-40.6 41.5-42.1 4.5-8.7-1.4-18.8-10.9-18.8-2.7 0-16.2 4.3-26.9 8.5-1.7.7-1.7.5-.3-2.9 3.7-8.8.4-21.1-7.2-26.9-4.9-3.6-4.7-3.6-64.8-16.6-4.9-1.1-16.2-3.6-25-5.6-8.8-2-25.4-5.6-37-8.1-11.5-2.5-27.7-6-36-7.9-22-5.1-33.7-7.5-36-7.4-1.1 0-4 .6-6.4 1.4zm-96.4 15.4c1.2.9 2.4 2.3 2.6 3.1.3.8 3.1 7.6 6.2 15s6.2 15.1 6.9 17c.8 1.9 4.3 10.7 7.9 19.5 3.6 8.8 8.4 20.5 10.6 26 2.2 5.5 4.1 10.5 4.1 11.1 0 .9-29.5 11.2-36.9 12.9-.9.3-11.8 3.8-24.4 7.8l-22.7 7.5-5.5-2.3c-3-1.2-5.1-2.6-4.7-3 .4-.5.2-.5-.5-.1s-12.8-2.7-27-6.8c-63.5-18.3-71.8-20.8-72.5-21.4-1.1-1.2-14.8-35.8-14.8-37.6 0-3.1 3-7.7 5.8-8.7 1.5-.6 9.5-2.9 17.7-5 20.2-5.4 28.9-7.8 35.5-9.5 3-.9 10.5-2.8 16.5-4.4 16.6-4.4 47.5-12.7 60.5-16.2 31.7-8.5 30.1-8.3 34.7-4.9zm116.3-.5c6.3 1.3 17.6 3.8 25 5.5 30.6 6.9 47 10.4 56.5 12.2 5.5 1.1 11.4 2.4 13 2.9 1.7.5 9.5 2.3 17.5 4 8 1.7 17.2 3.8 20.5 4.5 3.3.8 8.3 1.9 11 2.5 17.3 3.5 31.2 7.1 33.4 8.8 1.4 1 3 3.3 3.5 5.1.8 2.7.3 4.3-3.5 11.9-4.3 8.4-4.6 8.7-9.4 10.4-2.7.9-12 4.1-20.5 7.1s-26.1 9.1-39 13.6c-12.9 4.5-24.4 8.6-25.5 9.1-1.1.5-6.7 2.5-12.5 4.6-11.5 4-23 9.2-30.1 13.6l-4.6 2.8-9.9-2.9c-5.4-1.6-12.2-3.5-15.1-4.2-2.9-.7-5-1.6-4.7-2 .2-.4-.4-.5-1.3-.3-1 .3-5.8-.7-10.8-2.1-4.9-1.5-9.7-2.8-10.5-3-.8-.2-4.9-1.2-9-2.4s-13.1-3.6-20-5.5-12.4-3.8-12.3-4.2c.1-.5 5.6-13.9 12.3-29.7 6.6-15.8 12-29.4 12-30.2 0-.7.4-1.6.9-1.9.4-.3 3.3-6.5 6.2-13.7 5.7-13.9 9.1-18.9 13.1-18.9 1.2 0 7.5 1.1 13.8 2.4zM766 355c-11.8 11.6-31 30.5-42.6 42-11.5 11.6-21.7 21-22.5 21-.8 0-2.7.7-4.4 1.6-4 2.1-23.7 9.2-30.5 10.9-3 .8-9.1 2.8-13.5 4.4-7.5 2.8-21.1 7.6-64 22.6-17.9 6.3-27.7 9.9-43 15.6-7.9 3-14.7 5-15.2 4.5-.2-.1 9.5-9.9 21.3-21.7 11.9-11.8 22.3-22.2 23.2-23.1.9-.9 2-1.4 2.6-1.1.6.3.8.2.3-.2-1-1.1 6.3-8.6 7.6-7.8.6.3.7.1.3-.5-1-1.6 12.6-13.4 25.1-21.8 6.2-4.2 11.9-7.7 12.7-7.8.7-.1 2-.6 2.7-1.2 2.5-1.8 11.3-5.3 31.4-12.5 11-3.9 29.9-10.6 42-14.9 12.1-4.4 25.8-9.2 30.5-10.9 13.1-4.5 48.3-17.1 50-17.8.8-.3 2.1-.7 2.8-.9.8-.1 1.6-.5 2-.8.3-.3 1-.6 1.6-.6.6 0-8.6 9.5-20.4 21zm-519 1c2.5.7 5.4 1.6 6.5 2 1.1.5 4.5 1.4 7.5 2 3 .7 7.1 1.8 9 2.6 1.9.7 5.8 2 8.5 2.8 2.8.8 9.7 2.8 15.5 4.5 5.8 1.7 19.1 5.6 29.5 8.6 10.5 3 26 7.5 34.5 10s16.3 4.7 17.2 5c8.8 2 25.5 8.1 30.3 11 7.1 4.3 10 6.9 46 42 15.3 14.8 28.3 27.4 29.1 27.8.8.4 1.4 1.3 1.4 1.8 0 .6-.5.7-1.2.3-.7-.4-.8-.3-.4.5.4.6 1.2.9 1.7.5 1-.6 3.9 1.3 3.9 2.6 0 1-13.9-3.6-89.5-29.4-18.7-6.4-43.4-14.8-54.8-18.7l-20.8-7-13.5-11.6c-7.3-6.3-13.1-12-12.7-12.6.3-.6.1-.7-.5-.3-1 .6-23.9-18.2-56.7-46.6-.5-.5.4-.4 2 .1 1.7.5 5 1.4 7.5 2.1zm285.8 26c16.3 4.4 33.5 9.1 38.2 10.5 4.7 1.3 11.3 3.2 14.7 4.1l6.3 1.7-3.8 2.9c-2 1.6-21.1 20.3-42.5 41.5L507 481.3l-9.8-9.4c-5.3-5.1-15.1-14.5-21.7-20.9-6.6-6.3-14.9-14.4-18.5-18-3.7-3.6-12.8-12.5-20.3-19.9-7.5-7.4-13.7-13.5-13.7-13.7 0-.1 9.1-3.1 20.3-6.7 11.1-3.6 28.5-9.2 38.7-12.5 10.2-3.3 19.1-6.1 19.8-6.1.8-.1 14.7 3.5 31 7.9zM705 559.3v127.3l-11.2 4.1c-6.2 2.3-17.4 6.2-24.8 8.8-7.4 2.6-20 7-28 10-19.2 7-21.7 7.8-23.1 6.9-.7-.4-.9-.3-.6.3.4.6-3.4 2.4-9.1 4.3-5.3 1.8-11.3 4-13.2 5-1.9 1-11.6 4.5-21.5 7.8s-19.6 6.7-21.5 7.5c-1.9.8-10.7 3.8-19.5 6.7-8.8 2.9-16.6 5.4-17.2 5.7-1 .4-1.3-25.4-1.3-127 0-120.5.1-127.5 1.8-128.2 3.7-1.5 36-12.9 41.2-14.6 3-1 15.6-5.4 28-9.9s23.2-8.3 24-8.5c.8-.2 6-2 11.5-4s11.1-4 12.5-4.5c6.9-2.2 34.3-12.1 37.2-13.3 3.6-1.5 32.8-11.5 34.1-11.6.4-.1.7 57.2.7 127.2zM331.5 443c4.8 1.8 37.7 13 70 23.8 8.3 2.8 26.9 9.2 41.5 14.1 14.6 5 33.4 11.4 41.8 14.3l15.2 5.1v126.9c0 69.7-.2 126.8-.4 126.8s-2.3-.7-4.7-1.6c-2.4-.8-5.1-1.7-5.9-1.9-.8-.2-5.3-1.7-10-3.3-4.7-1.7-23.6-8.2-42-14.5-18.4-6.4-46.1-15.9-61.5-21.3-15.4-5.3-31.6-10.7-36-11.9-4.4-1.3-10.1-3.3-12.7-4.4l-4.8-2.2v-253l2.3.6c1.2.4 4.5 1.5 7.2 2.5z"/><path d="M648.8 513c-3.5 2.8-10 6.8-14.5 8.9-14.2 6.8-24.1 14.7-31.8 25.6-4.4 6.2-8.5 13.7-8.5 15.5 0 2.5 1.8.5 5-5.8 4.5-8.7 17.2-21.6 25.2-25.5 3.1-1.5 6.2-2.7 6.8-2.7.6 0-.2 1.9-1.8 4.2-6.6 9.7-12.6 24.3-16.7 40.8-3 12.1-8.7 31.2-10.5 35.5-2.4 5.6-7.4 11.2-12.3 13.7-3.3 1.6-5.1 1.9-9.7 1.4-5.4-.6-5.9-.5-8.9 2.3-1.7 1.6-3.1 3.6-3.1 4.5 0 2.4 9.3 4.8 21.5 5.3 9 .4 12.6.1 19.9-1.6 27.1-6.5 48.8-20.5 56.8-36.9 2.6-5.2 3.2-7.9 3.5-14.5.3-7.1.1-8.7-1.9-12.1-2.7-4.6-6-7.2-11.1-9l-3.8-1.3 3.8-2.6c10.5-7.3 16.5-16.5 17.1-26.4.7-11.1-4.2-15.3-17.7-15.3h-8.4l4.6-3.6c4.5-3.5 5.8-5.4 3.8-5.4-.6 0-3.8 2.3-7.3 5zm6.8 14c9.2 4.5 9.3 16.9.2 27.1-3.3 3.7-8.8 6.9-12 6.9-3 0-10.8 6.2-10.8 8.5 0 .8 2.4 1.4 7.3 1.7 13 .8 18.2 6.1 18.2 18.4-.1 16.7-12.8 30.3-35.5 37.8-5.3 1.7-8.9 2.1-19.2 2.1-15.1 0-17.1-1-10.5-4.8 6.7-4 13.3-12 18.2-22.1 4.2-8.7 5.9-13.9 14-43.1 5.2-18.9 12.2-32.9 16.7-33.8 5.3-1 9.4-.6 13.4 1.3zM365.1 521.2c-8.6 1.5-14.7 10.8-15.8 23.9-.7 8.5 1.1 9.5 2.2 1.1 1.7-13.7 8.4-20.7 17.5-18.2 5.6 1.5 9.5 5.2 13 12.3 8 16.3 7.9 43.7-.2 71.9-3.1 11-3.2 15.2-.3 12.8.8-.7 1.5-1.7 1.5-2.3 0-.5 2.7-7.3 6-15.1 5.9-14 14.4-30 19.7-37.4l2.8-3.8.2 11.5c.1 6.4.7 17.4 1.2 24.5.6 7.1 1.1 17.8 1.1 23.8 0 9.8.2 10.9 1.7 10.6 1-.2 3.4-2.8 5.5-5.9 2-3.1 8.5-10.1 14.5-15.5 17.4-16 21.2-20.3 25-28.3 3.1-6.4 3.7-8.7 4.1-16.6.4-7.7.1-9.9-1.6-13.7-3.7-8.4-10.3-10-14.2-3.5-2.1 3.4-2.6 6.7-1 6.7.5 0 1.4-.9 2-2 2.9-5.4 7 1 7 10.8 0 7.8-2.4 16.5-6.3 23.1-2.6 4.2-27.6 30.6-28.3 29.8-.1-.1-1-11-1.9-24.2-2.3-31.6-1.5-40.5 4.2-45.2 2.6-2.1 2.7-5.3.2-5.3-3.5 0-18 18.7-26.8 34.6-3.3 5.8-6.2 10.8-6.4 11.1-.3.2.2-2.9.9-6.9 3.5-17.5 2.8-35.3-1.7-47.4-4.6-12.2-15-19.2-25.8-17.2z"/></svg>